<svg enable-background="new 0 0 256 256" viewBox="0 0 256 256" xmlns="http://www.w3.org/2000/svg"><path d="m208.7 0h-161.4c-26 0-47.3 21.3-47.3 47.3v161.5c0 26 21.3 47.3 47.3 47.3h161.5c26 0 47.3-21.3 47.3-47.3v-161.5c-.1-26-21.4-47.3-47.4-47.3zm-94.9 64.3h57l-11.7-11.7c-2.3-2.3-2.3-6 0-8.2 2.3-2.3 6-2.3 8.2 0l21.6 21.6c1.1 1.1 1.7 2.6 1.7 4.1s-.6 3-1.7 4.1l-21.6 21.6c-2.3 2.3-6 2.3-8.2 0-2.3-2.3-2.3-6 0-8.2l11.7-11.7h-57c-3.2 0-5.8-2.6-5.8-5.8s2.6-5.8 5.8-5.8zm-62.7 44.4c0-1.5.6-3 1.7-4.1l21.6-21.6c2.3-2.3 6-2.3 8.2 0 2.3 2.3 2.3 6 0 8.2l-11.7 11.7h57c3.2 0 5.8 2.6 5.8 5.8s-2.6 5.8-5.8 5.8h-57l11.7 11.7c2.3 2.3 2.3 6 0 8.2-2.3 2.3-6 2.3-8.2 0l-21.6-21.6c-1.1-1.1-1.7-2.6-1.7-4.1zm91 83h-57l11.7 11.7c2.3 2.3 2.3 6 0 8.2-2.3 2.3-6 2.3-8.2 0l-21.6-21.6c-1.1-1.1-1.7-2.6-1.7-4.1s.6-3 1.7-4.1l21.6-21.6c2.3-2.3 6-2.3 8.2 0 2.3 2.3 2.3 6 0 8.2l-11.7 11.7h57c3.2 0 5.8 2.6 5.8 5.8s-2.6 5.8-5.8 5.8zm61.1-40.3-21.6 21.6c-2.3 2.3-6 2.3-8.2 0-2.3-2.3-2.3-6 0-8.2l11.7-11.7h-57c-3.2 0-5.8-2.6-5.8-5.8s2.6-5.8 5.8-5.8h57l-11.7-11.7c-2.3-2.3-2.3-6 0-8.2 2.3-2.3 6-2.3 8.2 0l21.6 21.6c1.1 1.1 1.7 2.6 1.7 4.1s-.6 3-1.7 4.1z" fill="#5bbcbf"/></svg>